<svg width="260" height="16" viewBox="0 0 260 16" fill="none" xmlns="http://www.w3.org/2000/svg">
<path d="M225.202 13.037C226.655 12.8808 229.657 12.1708 232.52 11.7347C238.083 10.8873 243.877 11.3007 249.353 9.84615C255.757 8.14488 223.035 7.57647 215.802 7.55844C207.234 7.54041 197.194 7.57448 184.19 7.49733C159.374 7.35707 125.586 7.27392 92.0512 7.98123C82.1387 8.19863 72.2202 8.38697 62.3459 8.72962C58.637 8.86187 54.9218 8.99613 51.2128 9.12836C44.7067 9.36981 38.2049 9.61226 31.697 9.82768C26.1862 10.01 19.3986 10.9337 13.4612 10.8586C6.6911 10.7724 1.97481 9.21152 0.504511 6.212C-0.0408511 5.12198 -0.394467 3.52593 0.802756 2.59723C2.00637 1.6655 2.67531 1.4 3.40599 1.14955C5.16991 0.560449 7.34923 0.102611 8.38667 0.0855814C22.7002 -0.105773 38.6755 0.0605336 51.4894 0.225842C61.5464 0.360092 71.6252 0.486317 84.8737 0.492344C100.749 0.608559 148.288 1.0093 164.158 1.01733C174.678 1.02334 185.174 1.4341 195.638 1.96509C204.345 2.40592 213.147 2.87178 222.097 3.39473C230.753 3.89266 235.895 3.92571 244.647 4.49878C246.01 4.58194 247.617 4.6651 249.353 4.76529C250.799 4.83042 252.674 4.94763 254.086 4.99071C255.505 5.02277 258.496 5.31676 259.614 8C260.986 11.2898 258.495 13.1142 255.355 14.3264C253.81 14.9225 252.172 14.9325 251.252 15.0076C247.72 15.3733 244.411 15.4875 241.921 15.3062C240.245 15.183 235.219 15.5567 230.822 15.8312C227.575 16.0466 225.733 16.0796 220.697 15.7901C218.047 15.4665 217.979 14.5087 221.068 13.7042C222.446 13.4117 224.024 13.1623 225.202 13.037Z" fill="#FFBC11"/>
</svg>
